<?xml version="1.0" standalone="no"?>
<!DOCTYPE svg PUBLIC "-//W3C//DTD SVG 20010904//EN"
 "http://www.w3.org/TR/2001/REC-SVG-20010904/DTD/svg10.dtd">
<svg version="1.0" xmlns="http://www.w3.org/2000/svg"
 width="820.000000pt" height="820.000000pt" viewBox="0 0 820.000000 820.000000"
 preserveAspectRatio="xMidYMid meet">
<metadata>
Created by potrace 1.11, written by Peter Selinger 2001-2013
</metadata>
<g transform="translate(0.000000,820.000000) scale(0.100000,-0.100000)"
fill="#000000" stroke="none">
<path d="M972 7573 c-53 -46 -553 -699 -791 -1032 l-81 -114 0 -2914 c0 -1802
4 -2913 9 -2911 5 1 183 118 395 258 242 160 387 262 390 275 3 11 6 1082 6
2379 0 1298 2 2357 5 2355 2 -3 9 -106 15 -229 38 -798 108 -1469 201 -1925
32 -154 38 -417 39 -1522 l0 -1003 2940 0 2940 0 0 265 0 265 484 0 483 0 47
50 c37 39 46 56 46 84 0 33 -15 51 -198 233 -216 216 -283 304 -381 500 -212
424 -343 962 -420 1718 -50 481 -61 844 -68 2105 -6 1164 -4 1123 -56 1152
-36 20 -732 26 -3473 27 -2379 1 -2513 0 -2532 -16z m5793 -1195 c0 -589 5
-1065 13 -1268 48 -1217 212 -2072 509 -2653 62 -121 141 -245 239 -375 l65
-87 -2667 -3 -2668 -2 -69 67 c-122 119 -247 265 -312 363 -348 525 -551 1327
-645 2545 -35 462 -53 967 -66 1888 l-7 467 2804 0 2805 0 -1 -942z"/>
<path d="M695 675 c-208 -140 -383 -259 -388 -264 -4 -4 1269 -11 2845 -14
l2853 -5 405 231 c223 127 422 242 444 256 l38 25 -28 9 c-17 5 -1249 11
-2909 13 l-2880 5 -380 -256z"/>
</g>
</svg>
